<svg xmlns="http://www.w3.org/2000/svg" viewBox="0 0 478.73 118.31"><defs><style>.cls-1{fill:#212323;}</style></defs><title>Element 1</title><g id="Ebene_2" data-name="Ebene 2"><g id="Ebene_1-2" data-name="Ebene 1"><path class="cls-1" d="M2.28,54.5C5.16,53.2,6,51,7.66,49.75S9.3,48.47,11,48c1-.3,5.28-.26,8.37-2.79a40.53,40.53,0,0,0,5.83-6.36s0-.06.08-.08c.42-.18,1.82,2.17,2.46,4.49A17,17,0,0,1,28,47.11a2,2,0,0,1-.35,1.63c-1.87,3.07-15-.38-20.54,5C2.76,58,4.6,66.12,5,67.88c.33,1.45,1.94,8.58,6.65,10.15,1.64.54,2.31,0,4.56.82,2.58,1,3,2.2,5.6,3.85a19.88,19.88,0,0,0,6.88,2.56c4.58.94,6,.24,6.93,1.72.32.52.53.49-.16,3.11-1.93,7.31-.44,8.6-1.28,9.7-1.49,1.94-2.45,1.37-3.7,3.06-1.51,2.05-.49,4.09-.31,6.61.17,2.34-.63,3.87-.08,6.3.26,1.12,1.66,2.76,2.22,2.53s.39-2.63.66-6.38c.07-.91-.14-5.61,1.32-5.88,1-.17,2.17,1.65,2.69,2.8.87,1.93,1.62,2.41,2.29,4.87.43,1.55.13,4.54,1.09,4.47s1.74-2.55,1.75-4.79c0-3.53-2-4.1-2.45-8-.07-.62,0-.09.58-6.53.26-3,.3-3.87.94-5,1-1.8,2.28-2.1,3.62-3.27,3.1-2.7,1.7-5.94,3.61-10.38,2.45-5.69,6.33-4.07,9.11-9.8,2.1-4.36,2.39-10.52-.35-13.65-.25-.29-1.3-1.2-3.39-3-.71-.63-2.37-2.08-4.08-3.5-5.59-4.63-5.91-4-6.77-5.48s.21-3.26.23-4.9c0-2.33-.34-4.09.47-4.26.56-.13.81.32,1.63,1.34,1.52,1.87,1.65,3.21,2.8,5.6a38.32,38.32,0,0,0,2.57,4.2c.6.91,1.53,2.2,3.39,4.78,2.58,3.6,1.11,1.43,1.75,2.34,1,1.37,1.25,2,1.57,1.89.48-.08.75-1.56.64-2.83-.22-2.61-2-3.89-3.73-6.18A73.78,73.78,0,0,1,51,39.41c-2.47-5.78-3.72-8.71-4-10.68-.36-2.3-.1-2.88-.81-3.91-1.81-2.62-5.5-1.86-6.6-4.26-.37-.83,0-1.12.12-3.27a24.69,24.69,0,0,0-1.11-8.57,13.47,13.47,0,0,0-3.26-6c-1.07-1-3-2.94-5.43-2.69S25.79,2.67,25,3.87a12.86,12.86,0,0,0-1.7,4.38c-.59,2.51-.42,3.71-.81,9.45-.17,2.46-.57,4.57-1.4,5.19-.49.37-.54.21-.84.72a2.11,2.11,0,0,0-.43,1.57c.09,1.78-.3,2-.37,3.49s.23,3.84-.06,8.4c0,.77.4,2.54-.57,4.09a.71.71,0,0,1-.07.11c-1.6,2.4-8.19,3.39-8.48,3.49-2,.64-2,1-3.65,2.12A32.51,32.51,0,0,0,2,50a7.4,7.4,0,0,0-1.4,2.27c-.39.86-.85,1.87-.46,2.28A5.29,5.29,0,0,0,2.28,54.5Z"/><path class="cls-1" d="M320.46,83a8.38,8.38,0,0,1-5.86,2.22q-4.94,0-9.34-5l-3.63,4.12A15.6,15.6,0,0,0,307.45,89a17.26,17.26,0,0,0,7.4,1.65,13.18,13.18,0,0,0,9.65-3.81,12.61,12.61,0,0,0,3.85-9.28,11.91,11.91,0,0,0-2.24-7.06q-2.3-3.09-8.73-6.4-5.26-2.7-6.89-4.77a6.23,6.23,0,0,1-1.68-4.08,5.72,5.72,0,0,1,2-4.36A6.84,6.84,0,0,1,315.62,49q4.36,0,9,4.49l3.67-3.84q-6.29-6-12.44-6A12.11,12.11,0,0,0,307.12,47a11.29,11.29,0,0,0-3.49,8.46,11.49,11.49,0,0,0,2.21,6.94c1.44,2.06,4.18,4.12,8.23,6.15q5.64,2.91,7.22,4.82a6.69,6.69,0,0,1,1.59,4.4A6.82,6.82,0,0,1,320.46,83Z"/><path class="cls-1" d="M340.46,37a4.8,4.8,0,0,0,4.77-4.77,4.52,4.52,0,0,0-1.4-3.35,4.64,4.64,0,0,0-3.37-1.38,4.73,4.73,0,0,0-4.73,4.73,4.61,4.61,0,0,0,1.39,3.36A4.51,4.51,0,0,0,340.46,37Z"/><path class="cls-1" d="M360.9,71.63q-.33-9.13,1.3-13.19a13.34,13.34,0,0,1,4.51-6.1,11.58,11.58,0,0,1,6.87-2,10.57,10.57,0,0,1,6.2,1.74,15.15,15.15,0,0,1,4.28,4.65q1.8,2.91,1.8,11V90.6h5.75V67.92q.93-8.69,2.77-11.21,4.69-6,11.3-6.41a10.49,10.49,0,0,1,6,1.66,8.86,8.86,0,0,1,3.51,4.34q1,2.69,1,9.87V90.6h5.88V66.17q0-8.36-1.74-12.58a12.87,12.87,0,0,0-6-6.55,18.51,18.51,0,0,0-8.94-2.32q-6.24.73-7.95,1.83a22.29,22.29,0,0,0-4.12,2.65A21,21,0,0,0,389,55.32a24.88,24.88,0,0,0-3.71-6.12,12.75,12.75,0,0,0-5.18-3.26,19,19,0,0,0-6.61-1.22q-5.06.12-7.79,1.87A18.9,18.9,0,0,0,359,52.75q-3.11,4.24-3.83,13.38V90.6h5.71Z"/><rect class="cls-1" x="255.55" y="45.86" width="5.75" height="44.74"/><path class="cls-1" d="M287.83,83A8.37,8.37,0,0,1,282,85.21q-4.94,0-9.34-5L269,84.36A15.49,15.49,0,0,0,274.82,89a17.26,17.26,0,0,0,7.4,1.65,13.18,13.18,0,0,0,9.65-3.81,12.58,12.58,0,0,0,3.85-9.28,11.91,11.91,0,0,0-2.24-7.06c-1.53-2.06-4.43-4.2-8.73-6.4q-5.26-2.7-6.89-4.77a6.23,6.23,0,0,1-1.68-4.08,5.72,5.72,0,0,1,2-4.36A6.85,6.85,0,0,1,283,49q4.35,0,9,4.49l3.67-3.84q-6.29-6-12.44-6A12.11,12.11,0,0,0,274.49,47,11.29,11.29,0,0,0,271,55.48a11.49,11.49,0,0,0,2.21,6.94c1.44,2.06,4.18,4.12,8.24,6.15q5.63,2.91,7.21,4.82a6.7,6.7,0,0,1,1.6,4.4A6.83,6.83,0,0,1,287.83,83Z"/><path class="cls-1" d="M258.4,37a4.75,4.75,0,0,0,3.37-8.12,4.64,4.64,0,0,0-3.37-1.38,4.73,4.73,0,0,0-4.73,4.73,4.61,4.61,0,0,0,1.39,3.36A4.51,4.51,0,0,0,258.4,37Z"/><rect class="cls-1" x="337.61" y="45.86" width="5.75" height="44.74"/><path class="cls-1" d="M455.27,90.64q12.57-1.06,17.34-10V90.84h6.08q.07-.36,0-23.53a23.07,23.07,0,0,0-6.29-16.19,23.35,23.35,0,0,0-34.26,0,24,24,0,0,0,.35,32.48Q445,90.65,455.27,90.64Zm-12.17-36a16.47,16.47,0,0,1,12.27-5.31,16.08,16.08,0,0,1,12.14,5.31,18,18,0,0,1,3.14,4.48A30.62,30.62,0,0,1,471.87,70q-6.64,17.82-22.37,14.32c-4.19-2.07-7.15-4.6-8.91-7.59A18.22,18.22,0,0,1,438,67.39,17.73,17.73,0,0,1,443.1,54.59Z"/><path class="cls-1" d="M123.26,88.54a25.25,25.25,0,0,0,10.26,2.1,22.12,22.12,0,0,0,16.31-6.85,22.68,22.68,0,0,0,6.77-16.52,23,23,0,0,0-6.73-16.72,21.78,21.78,0,0,0-16.19-6.89,22.1,22.1,0,0,0-9.83,2.18,24.07,24.07,0,0,0-8.12,6.63v-25H110V69.88a30.81,30.81,0,0,0,4.41,12A25.64,25.64,0,0,0,123.26,88.54ZM118,57.75a16.61,16.61,0,0,1,6.52-6.49,18,18,0,0,1,9-2.38,17.1,17.1,0,0,1,8.74,2.38A17.51,17.51,0,0,1,148.75,58a18.44,18.44,0,0,1,2.42,9.08,18.11,18.11,0,0,1-2.4,9.05,17.66,17.66,0,0,1-6.46,6.63,17.22,17.22,0,0,1-8.9,2.38,17,17,0,0,1-12.56-5.22,17.81,17.81,0,0,1-5.13-13A18.49,18.49,0,0,1,118,57.75Z"/><rect class="cls-1" x="238.7" y="28.57" width="5.79" height="62.03"/><path class="cls-1" d="M189.23,90.64a24.81,24.81,0,0,0,8.85-1.49,22.16,22.16,0,0,0,7.06-4.34,25.25,25.25,0,0,0,5.46-7.55l-4.81-2.57a26.67,26.67,0,0,1-4.92,6.36,17.64,17.64,0,0,1-5.48,3.16,18.72,18.72,0,0,1-6.65,1.21,15.85,15.85,0,0,1-11.87-5,18.24,18.24,0,0,1-5-12.82h40.17q0-9.13-4.89-15.26a22.06,22.06,0,0,0-18.24-8.68q-11.13,0-17.74,8.48a24.47,24.47,0,0,0,.94,31.34Q178.31,90.64,189.23,90.64ZM178,53.4a16.35,16.35,0,0,1,11.28-4.24,17.88,17.88,0,0,1,7.62,1.69,15.91,15.91,0,0,1,5.83,4.45,19,19,0,0,1,3.34,7.36H172.85Q174.61,56.51,178,53.4Z"/><rect class="cls-1" x="221.9" y="28.57" width="5.79" height="62.03"/></g></g></svg>